<svg xmlns="http://www.w3.org/2000/svg" width="1600" height="1000" viewBox="0 0 1600 1000" role="img" aria-labelledby="title desc">
  <title id="title">ANDWITH Host OS 최신 화면 미리보기</title>
  <desc id="desc">앤드 숙소의 오늘 운영, 달력, 수익, 리스팅 추천을 한눈에 보는 데스크톱 대시보드 시안</desc>
  <defs>
    <filter id="shadow" x="-20%" y="-20%" width="140%" height="160%"><feDropShadow dx="0" dy="8" stdDeviation="14" flood-color="#222222" flood-opacity=".08"/></filter>
    <style>
      text{font-family:Pretendard,"Noto Sans KR","Apple SD Gothic Neo",Arial,sans-serif;fill:#242424}
      .muted{fill:#717171}.coral{fill:#ff385c}.green{fill:#315f50}.brown{fill:#966126}.white{fill:#fff}
      .eyebrow{font-size:13px;font-weight:800;letter-spacing:1.5px}.label{font-size:14px;font-weight:650}.small{font-size:12px}.body{font-size:14px}.h1{font-size:36px;font-weight:800}.h2{font-size:20px;font-weight:800}.metric{font-size:29px;font-weight:800}.nav{font-size:14px;font-weight:700}
    </style>
  </defs>
  <rect width="1600" height="1000" fill="#f7f7f7"/>
  <rect x="28" y="24" width="1544" height="952" rx="26" fill="#fff" filter="url(#shadow)"/>

  <!-- top navigation -->
  <rect x="28" y="24" width="1544" height="78" rx="26" fill="#fff"/>
  <line x1="28" y1="102" x2="1572" y2="102" stroke="#e7e7e7"/>
  <rect x="65" y="45" width="38" height="38" rx="13" fill="#ff385c"/>
  <path d="M76 72V57h16v15M80 72v-8h8v8" fill="none" stroke="#fff" stroke-width="2.4" stroke-linecap="round" stroke-linejoin="round"/>
  <text x="116" y="70" font-size="20" font-weight="850">ANDWITH <tspan class="coral">Host OS</tspan></text>
  <text x="570" y="70" class="nav">오늘</text><rect x="565" y="93" width="38" height="3" rx="2" fill="#242424"/>
  <text x="655" y="70" class="nav muted">달력</text><text x="735" y="70" class="nav muted">수익</text><text x="815" y="70" class="nav muted">인사이트</text><text x="930" y="70" class="nav muted">리스팅 최적화</text><text x="1078" y="70" class="nav muted">보고서</text>
  <rect x="1290" y="43" width="165" height="40" rx="20" fill="#fff" stroke="#dddddd"/>
  <circle cx="1313" cy="63" r="6" fill="#315f50"/><text x="1328" y="68" class="label">앤드 · 선택</text><text x="1425" y="68" class="label muted">⌄</text>
  <circle cx="1502" cy="63" r="20" fill="#242424"/><text x="1492" y="69" class="label white">NH</text>

  <!-- left intro -->
  <text x="74" y="148" class="eyebrow coral">TODAY OPERATION · 2026. 08. 09</text>
  <text x="74" y="193" class="h1"><tspan class="coral">앤드</tspan>, 오늘의 운영</text>
  <text x="74" y="222" class="body muted">예약·담당자·수입·리스팅 상태를 연결해 지금 판단할 일만 보여드려요.</text>
  <rect x="1320" y="147" width="180" height="43" rx="12" fill="#fff" stroke="#242424"/><text x="1361" y="174" class="label">↻ 데이터 업데이트</text>

  <!-- next best action -->
  <rect x="74" y="252" width="1426" height="92" rx="18" fill="#fff5f3"/>
  <circle cx="104" cy="282" r="9" fill="#315f50"/><text x="128" y="286" class="eyebrow green">NEXT BEST ACTION</text>
  <text x="128" y="318" class="h2">8월 19일 단독 공백을 해당 날짜만 1박으로 판매해 보세요</text>
  <text x="965" y="317" class="small muted">기대효과 +1박 · 위험 낮음 · 데이터 기반 추정</text>
  <rect x="1324" y="274" width="142" height="47" rx="23" fill="#242424"/><text x="1360" y="303" class="label white">근거 검토하기</text>

  <!-- metrics -->
  <g transform="translate(74 370)">
    <rect width="255" height="126" rx="16" fill="#fff" stroke="#e5e5e5"/><text x="22" y="30" class="label muted">8월 예약박</text><text x="22" y="72" class="metric brown">25박</text><text x="22" y="103" class="small muted">차단 2일 별도 · 예약 10건</text>
    <rect x="273" width="255" height="126" rx="16" fill="#fff" stroke="#e5e5e5"/><text x="295" y="30" class="label muted">판매 가능일 예약률</text><text x="295" y="72" class="metric brown">86.2%</text><text x="295" y="103" class="small muted">보수·휴식 차단일 제외</text>
    <rect x="546" width="255" height="126" rx="16" fill="#fff" stroke="#e5e5e5"/><text x="568" y="30" class="label muted">평균 숙박기간</text><text x="568" y="72" class="metric brown">2.5박</text><text x="568" y="103" class="small muted">예약 10건 기준</text>
    <rect x="819" width="255" height="126" rx="16" fill="#fff" stroke="#e5e5e5"/><text x="841" y="30" class="label muted">세전 예상 운영이익</text><text x="841" y="72" class="metric brown">175.8만원</text><text x="841" y="103" class="small muted">누락비용 직접 입력 가능</text>
    <rect x="1092" width="334" height="126" rx="16" fill="#fff" stroke="#e5e5e5"/><text x="1114" y="30" class="label muted">리스팅 상태</text><text x="1114" y="70" class="h2">대표사진 자료 입력 대기</text><rect x="1114" y="88" width="103" height="23" rx="12" fill="#f1f1f1"/><text x="1128" y="104" class="small muted">관찰 유지</text><text x="1234" y="104" class="small coral">변경하지 않음</text>
  </g>

  <!-- checks -->
  <g transform="translate(74 524)">
    <rect width="760" height="255" rx="18" fill="#fff" stroke="#e5e5e5"/>
    <text x="24" y="40" class="eyebrow coral">PRIORITY</text><text x="24" y="72" class="h2">지금 확인할 판단 3개</text>
    <circle cx="38" cy="112" r="15" fill="#315f50"/><text x="33" y="118" class="label white">1</text><text x="68" y="108" class="label">8월 10일 청소 담당자 미정</text><text x="68" y="130" class="small muted">11:00 체크아웃 · 16:00 체크인 · 담당자 배정 필요</text><rect x="600" y="96" width="124" height="36" rx="18" fill="#315f50"/><text x="626" y="119" class="small white">담당자 배정</text>
    <line x1="24" y1="149" x2="736" y2="149" stroke="#ededed"/>
    <circle cx="38" cy="177" r="15" fill="#315f50"/><text x="33" y="183" class="label white">2</text><text x="68" y="173" class="label">예약 사이 판매 가능한 1박 공백</text><text x="68" y="195" class="small muted">호스트 휴식일은 공실 분석에서 제외해 잘못된 할인을 방지</text><text x="628" y="182" class="small green">근거 보기 →</text>
    <line x1="24" y1="214" x2="736" y2="214" stroke="#ededed"/>
    <circle cx="38" cy="238" r="15" fill="#315f50"/><text x="33" y="244" class="label white">3</text><text x="68" y="235" class="label">첫 5장 사진 정보 입력 대기</text><text x="388" y="235" class="small muted">자료가 없어 변경보다 관찰 유지</text><text x="628" y="240" class="small coral">리스팅 점검 →</text>
  </g>

  <!-- today schedule -->
  <g transform="translate(856 524)">
    <rect width="644" height="255" rx="18" fill="#fff" stroke="#e5e5e5"/>
    <text x="24" y="40" class="eyebrow coral">TODAY</text><text x="24" y="72" class="h2">오늘 일정</text>
    <line x1="46" y1="91" x2="46" y2="226" stroke="#dddddd" stroke-width="2"/>
    <circle cx="46" cy="103" r="7" fill="#315f50"/><text x="70" y="108" class="label">11:00  예약 체크아웃</text><text x="307" y="108" class="small muted">2인 · 1박 · 퇴실 확인</text>
    <circle cx="46" cy="147" r="7" fill="#ff385c"/><text x="70" y="152" class="label">11:30  청소 시작</text><rect x="267" y="134" width="112" height="25" rx="12" fill="#fff0f2"/><text x="284" y="151" class="small coral">담당자 미정</text>
    <circle cx="46" cy="191" r="7" fill="#d49a22"/><text x="70" y="196" class="label">15:30  입실 준비 확인</text><text x="307" y="196" class="small muted">도어락 · 냉난방 · 침구</text>
    <circle cx="46" cy="229" r="7" fill="#315f50"/><text x="70" y="234" class="label">16:00  다음 예약 체크인</text><text x="307" y="234" class="small muted">3인 · 3박 · 안내 확인</text>
  </g>

  <!-- calendar -->
  <g transform="translate(74 806)">
    <rect width="1426" height="132" rx="18" fill="#fff" stroke="#e5e5e5"/>
    <text x="22" y="30" class="eyebrow coral">AUGUST CALENDAR</text><text x="22" y="58" class="h2">앤드 예약 · 청소 미리보기</text>
    <g transform="translate(280 22)">
      <g fill="#fafafa" stroke="#e8e8e8"><rect width="108" height="88" rx="12"/><rect x="112" width="108" height="88" rx="12"/><rect x="224" width="108" height="88" rx="12"/><rect x="336" width="108" height="88" rx="12"/><rect x="448" width="108" height="88" rx="12"/><rect x="560" width="108" height="88" rx="12"/><rect x="672" width="108" height="88" rx="12"/><rect x="784" width="108" height="88" rx="12"/><rect x="896" width="108" height="88" rx="12"/></g>
      <g class="small muted"><text x="12" y="20">9 일</text><text x="124" y="20">10 월</text><text x="236" y="20">11 화</text><text x="348" y="20">12 수</text><text x="460" y="20">13 목</text><text x="572" y="20">14 금</text><text x="684" y="20">15 토</text><text x="796" y="20">16 일</text><text x="908" y="20">17 월</text></g>
      <rect x="112" y="34" width="332" height="29" rx="14" fill="#315f50"/><text x="132" y="54" class="small white">예약 F · 3인 · 3박</text>
      <rect x="448" y="34" width="444" height="29" rx="14" fill="#315f50"/><text x="468" y="54" class="small white">예약 G · 2인 · 4박</text>
      <rect x="112" y="69" width="105" height="16" rx="8" fill="#fff0f2"/><text x="125" y="81" font-size="10" class="coral">청소 · 미정</text>
      <rect x="448" y="69" width="118" height="16" rx="8" fill="#eef5f2"/><text x="461" y="81" font-size="10" class="green">청소 · 홍길동</text>
    </g>
    <text x="1308" y="68" class="small coral">전체 달력 보기 →</text>
  </g>
  <text x="74" y="961" class="small muted">화면 시안 · 실제 Airbnb 데이터가 없는 항목은 임의 생성하지 않고 ‘자료 없음’ 또는 ‘입력 대기’로 표시합니다.</text>
</svg>
